# xmcd CD database file
#
# Track frame offsets:
#	183
#	10558
#	25270
#	39203
#	53083
#	71290
#	87743
#	103355
#	120745
#	137338
#	148373
#	163760
#	176200
#	189603
#	215953
#	229970
#	244280
#	259400
#
# Disc length: 3631 seconds
#
# Revision: 2
# Processed by: cddbd v1.4PL0 Copyright (c) Steve Scherf et al.
# Submitted via: CDex 1.40Release
#
DISCID=120e2d12
DTITLE=Louis Armstrong - Hello Louis!
DYEAR=1990
DGENRE=Jazz
TTITLE0=What A Wonderful World
TTITLE1=Dream a Little Dream Of Me
TTITLE2=Georgia On My Mind
TTITLE3=C'est Si Bon
TTITLE4=When You're Smiling
TTITLE5=Go Down Moses
TTITLE6=Tenderly
TTITLE7=Lazy River
TTITLE8=When The Saints Go Marching In
TTITLE9=Hello Dolly
TTITLE10=La Vie En Rose
TTITLE11=Cabaret
TTITLE12=Moon River
TTITLE13=On The Sunny Side Of The Street
TTITLE14=There Must Be A Way
TTITLE15=Down By The Riverside
TTITLE16=Body And Soul
TTITLE17=Blueberry Hill
EXTD=YEAR: 1990 ID3G: 8
EXTT0=
EXTT1=
EXTT2=
EXTT3=
EXTT4=
EXTT5=
EXTT6=
EXTT7=
EXTT8=
EXTT9=
EXTT10=
EXTT11=
EXTT12=
EXTT13=
EXTT14=
EXTT15=
EXTT16=
EXTT17=
PLAYORDER=
